<?xml version="1.0" encoding="UTF-8" standalone="no"?>
<!DOCTYPE svg PUBLIC "-//W3C//DTD SVG 1.1//EN"
 "http://www.w3.org/Graphics/SVG/1.1/DTD/svg11.dtd">
<!-- Generated by graphviz version 2.36.0 (20140111.2315)
 -->
<!-- Title: GamerGate Pages: 1 -->
<svg width="441pt" height="308pt"
 viewBox="0.00 0.00 441.00 308.00" xmlns="http://www.w3.org/2000/svg" xmlns:xlink="http://www.w3.org/1999/xlink">
<g id="graph0" class="graph" transform="scale(1 1) rotate(0) translate(4 304)">
<title>GamerGate</title>
<polygon fill="white" stroke="none" points="-4,4 -4,-304 437,-304 437,4 -4,4"/>
<!-- G1 -->
<g id="node1" class="node"><title>G1</title>
<ellipse fill="none" stroke="black" cx="128" cy="-194" rx="128.533" ry="18"/>
<text text-anchor="middle" x="128" y="-190.3" font-family="Times,serif" font-size="14.00">People who are in fact concerned</text>
</g>
<!-- G2 -->
<g id="node2" class="node"><title>G2</title>
<ellipse fill="none" stroke="black" cx="234" cy="-106" rx="65.9423" ry="18"/>
<text text-anchor="middle" x="234" y="-102.3" font-family="Times,serif" font-size="14.00">Trolls and jerks</text>
</g>
<!-- G1&#45;&gt;G2 -->
<g id="edge1" class="edge"><title>G1&#45;&gt;G2</title>
<path fill="none" stroke="black" d="M148.69,-176.214C164.991,-162.989 187.887,-144.413 205.855,-129.835"/>
<polygon fill="black" stroke="black" points="208.162,-132.47 213.723,-123.451 203.752,-127.034 208.162,-132.47"/>
<text text-anchor="middle" x="242" y="-146.3" font-family="Times,serif" font-size="14.00">Trying to keep out</text>
</g>
<!-- G3 -->
<g id="node3" class="node"><title>G3</title>
<ellipse fill="none" stroke="black" cx="98" cy="-18" rx="71.2405" ry="18"/>
<text text-anchor="middle" x="98" y="-14.3" font-family="Times,serif" font-size="14.00">Game journalists</text>
</g>
<!-- G1&#45;&gt;G3 -->
<g id="edge2" class="edge"><title>G1&#45;&gt;G3</title>
<path fill="none" stroke="black" d="M79.9761,-177.175C55.4839,-166.361 27.9766,-149.316 14,-124 -3.50892,-92.2854 31.0752,-60.4378 61.0307,-40.2719"/>
<polygon fill="black" stroke="black" points="63.2187,-43.025 69.7118,-34.6529 59.415,-37.1485 63.2187,-43.025"/>
<text text-anchor="middle" x="37" y="-102.3" font-family="Times,serif" font-size="14.00">Fighting</text>
</g>
<!-- G2&#45;&gt;G3 -->
<g id="edge3" class="edge"><title>G2&#45;&gt;G3</title>
<path fill="none" stroke="black" d="M214.451,-88.6158C201.438,-78.0927 183.72,-64.4834 167,-54 158.379,-48.595 148.819,-43.3242 139.63,-38.5815"/>
<polygon fill="black" stroke="black" points="141.117,-35.4117 130.613,-34.0293 137.963,-41.6605 141.117,-35.4117"/>
<text text-anchor="middle" x="217" y="-58.3" font-family="Times,serif" font-size="14.00">Attacking</text>
</g>
<!-- G4 -->
<g id="node4" class="node"><title>G4</title>
<ellipse fill="none" stroke="black" cx="343" cy="-18" rx="89.0632" ry="18"/>
<text text-anchor="middle" x="343" y="-14.3" font-family="Times,serif" font-size="14.00">Social justice activists</text>
</g>
<!-- G2&#45;&gt;G4 -->
<g id="edge4" class="edge"><title>G2&#45;&gt;G4</title>
<path fill="none" stroke="black" d="M241.81,-88.0791C247.525,-77.1993 256.161,-63.3928 267,-54 274.014,-47.922 282.261,-42.6978 290.688,-38.2798"/>
<polygon fill="black" stroke="black" points="292.406,-41.3357 299.854,-33.7999 289.332,-35.0467 292.406,-41.3357"/>
<text text-anchor="middle" x="294" y="-58.3" font-family="Times,serif" font-size="14.00">Attacking</text>
</g>
<!-- G3&#45;&gt;G1 -->
<g id="edge5" class="edge"><title>G3&#45;&gt;G1</title>
<path fill="none" stroke="black" d="M93.68,-36.019C89.0689,-57.0299 83.3888,-93.7003 91,-124 94.8373,-139.276 102.781,-154.86 110.328,-167.343"/>
<polygon fill="black" stroke="black" points="107.392,-169.248 115.689,-175.836 113.311,-165.511 107.392,-169.248"/>
<text text-anchor="middle" x="125" y="-102.3" font-family="Times,serif" font-size="14.00">Covering up</text>
</g>
<!-- G3&#45;&gt;G2 -->
<g id="edge6" class="edge"><title>G3&#45;&gt;G2</title>
<path fill="none" stroke="black" d="M98.5577,-36.2588C99.8186,-47.2812 103.221,-61.1198 112,-70 116.924,-74.9803 147.043,-83.6455 176.12,-91.1076"/>
<polygon fill="black" stroke="black" points="175.35,-94.523 185.903,-93.5851 177.069,-87.7372 175.35,-94.523"/>
<text text-anchor="middle" x="137.5" y="-58.3" font-family="Times,serif" font-size="14.00">Covering</text>
</g>
<!-- G4&#45;&gt;G1 -->
<g id="edge8" class="edge"><title>G4&#45;&gt;G1</title>
<path fill="none" stroke="black" d="M368.569,-35.6091C374.389,-40.7469 379.797,-46.9415 383,-54 385.938,-60.4756 385.684,-63.4147 383,-70 362.363,-120.643 344.977,-131.755 297,-158 278.732,-167.993 257.928,-175.14 237.312,-180.249"/>
<polygon fill="black" stroke="black" points="236.486,-176.848 227.542,-182.527 238.075,-183.665 236.486,-176.848"/>
<text text-anchor="middle" x="400" y="-102.3" font-family="Times,serif" font-size="14.00">Crossfire</text>
</g>
<!-- G4&#45;&gt;G2 -->
<g id="edge7" class="edge"><title>G4&#45;&gt;G2</title>
<path fill="none" stroke="black" d="M339.218,-36.076C336.01,-47.0212 330.387,-60.8424 321,-70 312.617,-78.1775 302.077,-84.5227 291.253,-89.4198"/>
<polygon fill="black" stroke="black" points="289.621,-86.307 281.716,-93.3602 292.294,-92.7766 289.621,-86.307"/>
<text text-anchor="middle" x="356" y="-58.3" font-family="Times,serif" font-size="14.00">Fighting</text>
</g>
<!-- G5 -->
<g id="node5" class="node"><title>G5</title>
<ellipse fill="none" stroke="black" cx="128" cy="-282" rx="100.611" ry="18"/>
<text text-anchor="middle" x="128" y="-278.3" font-family="Times,serif" font-size="14.00">Concerned women haters</text>
</g>
<!-- G5&#45;&gt;G1 -->
<g id="edge9" class="edge"><title>G5&#45;&gt;G1</title>
<path fill="none" stroke="black" d="M128,-263.597C128,-251.746 128,-235.817 128,-222.292"/>
<polygon fill="black" stroke="black" points="131.5,-222.084 128,-212.084 124.5,-222.084 131.5,-222.084"/>
<text text-anchor="middle" x="176.5" y="-234.3" font-family="Times,serif" font-size="14.00">Targeting women</text>
</g>
</g>
</svg>
